<svg xmlns="http://www.w3.org/2000/svg" viewBox="0 0 512 512" role="img" aria-label="Limpieza">
  <defs>
    <radialGradient id="bg" cx="50%" cy="32%" r="85%">
      <stop offset="0%" stop-color="#2c2820"/>
      <stop offset="50%" stop-color="#211d16"/>
      <stop offset="100%" stop-color="#15110b"/>
    </radialGradient>
    <linearGradient id="gold" x1="0%" y1="0%" x2="100%" y2="100%">
      <stop offset="0%" stop-color="#ecd6a6"/>
      <stop offset="55%" stop-color="#cda561"/>
      <stop offset="100%" stop-color="#a07f43"/>
    </linearGradient>
  </defs>

  <rect width="512" height="512" rx="104" fill="url(#bg)"/>

  <g fill="none" stroke="url(#gold)" stroke-linecap="round" stroke-linejoin="round">
    <!-- handle -->
    <line x1="348" y1="88" x2="262" y2="228" stroke-width="20"/>
    <!-- ferrule -->
    <path d="M248 220 L292 238" stroke-width="14"/>
    <!-- straw bristle wedge -->
    <path
      d="M244 236 L118 404 C168 392 248 398 334 408 L292 236 Z"
      fill="rgba(220,192,140,0.12)"
      stroke-width="14"
    />
    <!-- bristle strands -->
    <g stroke-width="8" opacity="0.9">
      <line x1="152" y1="396" x2="236" y2="244"/>
      <line x1="176" y1="400" x2="242" y2="242"/>
      <line x1="200" y1="402" x2="248" y2="240"/>
      <line x1="224" y1="404" x2="254" y2="238"/>
      <line x1="248" y1="404" x2="260" y2="236"/>
      <line x1="272" y1="402" x2="268" y2="236"/>
      <line x1="296" y1="398" x2="278" y2="236"/>
      <line x1="318" y1="392" x2="286" y2="236"/>
    </g>
  </g>
</svg>
