<svg xmlns="http://www.w3.org/2000/svg" viewBox="0 0 512 512" role="img" aria-label="Limpieza">
  <defs>
    <radialGradient id="bg" cx="50%" cy="32%" r="85%">
      <stop offset="0%" stop-color="#2c2820"/>
      <stop offset="50%" stop-color="#211d16"/>
      <stop offset="100%" stop-color="#15110b"/>
    </radialGradient>
    <linearGradient id="gold" x1="0%" y1="0%" x2="100%" y2="100%">
      <stop offset="0%" stop-color="#ecd6a6"/>
      <stop offset="55%" stop-color="#cda561"/>
      <stop offset="100%" stop-color="#a07f43"/>
    </linearGradient>
  </defs>

  <rect width="512" height="512" rx="104" fill="url(#bg)"/>

  <!-- Lucide-style sparkles + clipboard checklist -->
  <g fill="none" stroke="url(#gold)" stroke-width="14" stroke-linecap="round" stroke-linejoin="round">
    <rect x="148" y="118" width="216" height="276" rx="28" fill="rgba(220,192,140,0.08)" stroke="url(#gold)"/>
    <path d="M196 118v-18a60 60 0 0 1 120 0v18"/>
    <path d="M188 248h136"/>
    <path d="M188 296h96"/>
    <path d="M188 344h112"/>
    <path d="M360 108l22-22"/>
    <path d="M382 108l-22-22"/>
    <path d="M152 388l-18 18"/>
    <path d="M134 388l18 18"/>
  </g>
  <g fill="url(#gold)" stroke="none">
    <circle cx="392" cy="132" r="10"/>
    <circle cx="120" cy="404" r="8"/>
    <circle cx="404" cy="380" r="6"/>
  </g>
</svg>
