<svg xmlns="http://www.w3.org/2000/svg" viewBox="0 0 512 512" role="img" aria-label="Guide">
  <defs>
    <radialGradient id="bg" cx="50%" cy="32%" r="85%">
      <stop offset="0%" stop-color="#213533"/>
      <stop offset="50%" stop-color="#182826"/>
      <stop offset="100%" stop-color="#0e1716"/>
    </radialGradient>
    <linearGradient id="teal" x1="0%" y1="0%" x2="100%" y2="100%">
      <stop offset="0%" stop-color="#cfe6e2"/>
      <stop offset="55%" stop-color="#8cc2bc"/>
      <stop offset="100%" stop-color="#3f8e8b"/>
    </linearGradient>
  </defs>

  <rect width="512" height="512" rx="104" fill="url(#bg)"/>

  <!-- Lucide "book-open" (ISC), enlarged for small-size legibility -->
  <g transform="translate(256 256) scale(16.5) translate(-12 -12.2)"
     fill="none" stroke="url(#teal)" stroke-width="1.9"
     stroke-linecap="round" stroke-linejoin="round">
    <path d="M12 7v14"/>
    <path d="M3 18a1 1 0 0 1-1-1V4a1 1 0 0 1 1-1h5a4 4 0 0 1 4 4 4 4 0 0 1 4-4h5a1 1 0 0 1 1 1v13a1 1 0 0 1-1 1h-6a3 3 0 0 0-3 3 3 3 0 0 0-3-3z"/>
  </g>
</svg>
