<?xml version="1.0" encoding="utf-8"?>
<!-- Generator: Adobe Illustrator 18.1.0, SVG Export Plug-In . SVG Version: 6.00 Build 0)  -->
<svg version="1.1" id="Layer_1" xmlns="http://www.w3.org/2000/svg" xmlns:xlink="http://www.w3.org/1999/xlink" x="0px" y="0px"
	 viewBox="0 0 130 30" enable-background="new 0 0 130 30" xml:space="preserve">
<g>
	<path fill="#FFFFFF" d="M32.6,23c-5,0-9.1-4.1-9.1-9.1s4.1-9.1,9.1-9.1c5,0,9.1,4.1,9.1,9.1S37.6,23,32.6,23z M32.6,6.2
		c-4.2,0-7.7,3.5-7.7,7.7c0,4.2,3.5,7.7,7.7,7.7c4.2,0,7.7-3.5,7.7-7.7C40.3,9.6,36.8,6.2,32.6,6.2z"/>
	<path fill="#FFFFFF" d="M19.7,22.6c-0.4,0-0.7-0.3-0.7-0.7V8.9l-6.4,13.2c-0.2,0.5-1,0.5-1.3,0L5,8.9v12.9c0,0.4-0.3,0.7-0.7,0.7
		s-0.7-0.3-0.7-0.7v-16c0-0.3,0.2-0.6,0.5-0.7c0.3-0.1,0.6,0.1,0.8,0.4L12,20.3l7.1-14.7c0.1-0.3,0.5-0.5,0.8-0.4
		c0.3,0.1,0.5,0.4,0.5,0.7v16C20.4,22.3,20.1,22.6,19.7,22.6z"/>
	<path fill="#FFFFFF" d="M58.9,22.6c-0.2,0-0.4-0.1-0.5-0.3L46.2,7.8v14.1c0,0.4-0.3,0.7-0.7,0.7s-0.7-0.3-0.7-0.7v-16
		c0-0.3,0.2-0.6,0.5-0.7c0.3-0.1,0.6,0,0.8,0.2L58.2,20V5.9c0-0.4,0.3-0.7,0.7-0.7s0.7,0.3,0.7,0.7v16c0,0.3-0.2,0.6-0.5,0.7
		C59.1,22.6,59,22.6,58.9,22.6z"/>
	<path fill="#FFFFFF" d="M113,22.6h-8.2c-0.4,0-0.7-0.3-0.7-0.7v-16c0-0.4,0.3-0.7,0.7-0.7s0.7,0.3,0.7,0.7v15.3h7.5
		c0.4,0,0.7,0.3,0.7,0.7S113.4,22.6,113,22.6z"/>
	<path fill="#FFFFFF" d="M125.7,21.2h-7.5v-6.6h7.1c0.4,0,0.7-0.3,0.7-0.7s-0.3-0.7-0.7-0.7h-7.1V6.6h7.5c0.4,0,0.7-0.3,0.7-0.7
		s-0.3-0.7-0.7-0.7h-8.2c-0.4,0-0.7,0.3-0.7,0.7v16c0,0.4,0.3,0.7,0.7,0.7h8.2c0.4,0,0.7-0.3,0.7-0.7S126.1,21.2,125.7,21.2z"/>
	<path fill="#FFFFFF" d="M77.9,22.9c-0.3,0-0.6-0.1-0.8-0.4c-0.3-0.4-0.3-1.1,0.2-1.4c2.3-1.7,3.6-4.4,3.6-7.2
		c0-2.8-1.3-5.5-3.5-7.2c-0.4-0.3-0.5-1-0.2-1.4c0.3-0.4,1-0.5,1.4-0.2c2.8,2.1,4.3,5.3,4.3,8.8c0,3.5-1.6,6.7-4.3,8.8
		C78.4,22.8,78.2,22.9,77.9,22.9z"/>
	<path fill="#FFFFFF" d="M71.8,23c-5,0-9.1-4.1-9.1-9.1s4.1-9.1,9.1-9.1c1.9,0,3.7,0.6,5.2,1.7c0.3,0.2,0.4,0.7,0.2,1
		c-0.2,0.3-0.7,0.4-1,0.2c-1.3-0.9-2.8-1.4-4.4-1.4c-4.2,0-7.7,3.5-7.7,7.7c0,4.2,3.5,7.7,7.7,7.7c1.6,0,3.1-0.5,4.4-1.4
		c0.3-0.2,0.8-0.1,1,0.2c0.2,0.3,0.1,0.8-0.2,1C75.5,22.4,73.7,23,71.8,23z"/>
	<linearGradient id="SVGID_1_" gradientUnits="userSpaceOnUse" x1="87.8267" y1="29.4268" x2="87.8267" y2="0.5732">
		<stop  offset="0" style="stop-color:#AB8461"/>
		<stop  offset="1" style="stop-color:#FDCE8A"/>
	</linearGradient>
	<path fill="url(#SVGID_1_)" d="M101.7,28.4c-1.6-3-4.2-3.9-6.4-3.9c3.2-2.4,5.3-6.3,5.3-10.6c0-7.3-6-13.3-13.3-13.3
		c-7.3,0-13.3,6-13.3,13.3c0,7.3,6,13.3,13.3,13.3c1.4,0,2.8-0.2,4-0.6c0,0,0.1,0,0.1,0c0.7-0.3,6.5-2.3,9.1,2.5
		c0.1,0.2,0.4,0.4,0.6,0.4c0.1,0,0.2,0,0.3-0.1C101.7,29.2,101.8,28.7,101.7,28.4z M75.3,13.9C75.3,7.3,80.7,2,87.2,2
		s11.9,5.3,11.9,11.9s-5.3,11.9-11.9,11.9S75.3,20.4,75.3,13.9z"/>
</g>
</svg>
