<svg xmlns="http://www.w3.org/2000/svg" version="1.1" viewBox="0 0 33 33" stroke="none">
	<rect width="100%" height="100%" fill="#FFFFFF"/>
	<path d="M0,0h1v1h-1z M1,0h1v1h-1z M2,0h1v1h-1z M3,0h1v1h-1z M4,0h1v1h-1z M5,0h1v1h-1z M6,0h1v1h-1z M9,0h1v1h-1z M13,0h1v1h-1z M14,0h1v1h-1z M15,0h1v1h-1z M17,0h1v1h-1z M18,0h1v1h-1z M19,0h1v1h-1z M26,0h1v1h-1z M27,0h1v1h-1z M28,0h1v1h-1z M29,0h1v1h-1z M30,0h1v1h-1z M31,0h1v1h-1z M32,0h1v1h-1z M0,1h1v1h-1z M6,1h1v1h-1z M10,1h1v1h-1z M11,1h1v1h-1z M12,1h1v1h-1z M13,1h1v1h-1z M14,1h1v1h-1z M15,1h1v1h-1z M18,1h1v1h-1z M22,1h1v1h-1z M23,1h1v1h-1z M26,1h1v1h-1z M32,1h1v1h-1z M0,2h1v1h-1z M2,2h1v1h-1z M3,2h1v1h-1z M4,2h1v1h-1z M6,2h1v1h-1z M9,2h1v1h-1z M10,2h1v1h-1z M12,2h1v1h-1z M13,2h1v1h-1z M18,2h1v1h-1z M19,2h1v1h-1z M20,2h1v1h-1z M24,2h1v1h-1z M26,2h1v1h-1z M28,2h1v1h-1z M29,2h1v1h-1z M30,2h1v1h-1z M32,2h1v1h-1z M0,3h1v1h-1z M2,3h1v1h-1z M3,3h1v1h-1z M4,3h1v1h-1z M6,3h1v1h-1z M10,3h1v1h-1z M11,3h1v1h-1z M12,3h1v1h-1z M13,3h1v1h-1z M14,3h1v1h-1z M15,3h1v1h-1z M16,3h1v1h-1z M17,3h1v1h-1z M18,3h1v1h-1z M20,3h1v1h-1z M22,3h1v1h-1z M24,3h1v1h-1z M26,3h1v1h-1z M28,3h1v1h-1z M29,3h1v1h-1z M30,3h1v1h-1z M32,3h1v1h-1z M0,4h1v1h-1z M2,4h1v1h-1z M3,4h1v1h-1z M4,4h1v1h-1z M6,4h1v1h-1z M11,4h1v1h-1z M12,4h1v1h-1z M14,4h1v1h-1z M17,4h1v1h-1z M18,4h1v1h-1z M19,4h1v1h-1z M20,4h1v1h-1z M21,4h1v1h-1z M23,4h1v1h-1z M26,4h1v1h-1z M28,4h1v1h-1z M29,4h1v1h-1z M30,4h1v1h-1z M32,4h1v1h-1z M0,5h1v1h-1z M6,5h1v1h-1z M8,5h1v1h-1z M9,5h1v1h-1z M10,5h1v1h-1z M13,5h1v1h-1z M15,5h1v1h-1z M16,5h1v1h-1z M17,5h1v1h-1z M18,5h1v1h-1z M19,5h1v1h-1z M26,5h1v1h-1z M32,5h1v1h-1z M0,6h1v1h-1z M1,6h1v1h-1z M2,6h1v1h-1z M3,6h1v1h-1z M4,6h1v1h-1z M5,6h1v1h-1z M6,6h1v1h-1z M8,6h1v1h-1z M10,6h1v1h-1z M12,6h1v1h-1z M14,6h1v1h-1z M16,6h1v1h-1z M18,6h1v1h-1z M20,6h1v1h-1z M22,6h1v1h-1z M24,6h1v1h-1z M26,6h1v1h-1z M27,6h1v1h-1z M28,6h1v1h-1z M29,6h1v1h-1z M30,6h1v1h-1z M31,6h1v1h-1z M32,6h1v1h-1z M11,7h1v1h-1z M12,7h1v1h-1z M15,7h1v1h-1z M16,7h1v1h-1z M17,7h1v1h-1z M21,7h1v1h-1z M22,7h1v1h-1z M23,7h1v1h-1z M24,7h1v1h-1z M0,8h1v1h-1z M3,8h1v1h-1z M5,8h1v1h-1z M6,8h1v1h-1z M8,8h1v1h-1z M9,8h1v1h-1z M12,8h1v1h-1z M13,8h1v1h-1z M14,8h1v1h-1z M16,8h1v1h-1z M21,8h1v1h-1z M25,8h1v1h-1z M27,8h1v1h-1z M0,9h1v1h-1z M2,9h1v1h-1z M3,9h1v1h-1z M5,9h1v1h-1z M7,9h1v1h-1z M9,9h1v1h-1z M11,9h1v1h-1z M13,9h1v1h-1z M16,9h1v1h-1z M17,9h1v1h-1z M20,9h1v1h-1z M21,9h1v1h-1z M29,9h1v1h-1z M30,9h1v1h-1z M31,9h1v1h-1z M32,9h1v1h-1z M1,10h1v1h-1z M2,10h1v1h-1z M3,10h1v1h-1z M4,10h1v1h-1z M6,10h1v1h-1z M7,10h1v1h-1z M8,10h1v1h-1z M13,10h1v1h-1z M14,10h1v1h-1z M16,10h1v1h-1z M18,10h1v1h-1z M19,10h1v1h-1z M22,10h1v1h-1z M25,10h1v1h-1z M28,10h1v1h-1z M29,10h1v1h-1z M30,10h1v1h-1z M32,10h1v1h-1z M0,11h1v1h-1z M1,11h1v1h-1z M3,11h1v1h-1z M4,11h1v1h-1z M7,11h1v1h-1z M9,11h1v1h-1z M10,11h1v1h-1z M11,11h1v1h-1z M12,11h1v1h-1z M13,11h1v1h-1z M16,11h1v1h-1z M18,11h1v1h-1z M19,11h1v1h-1z M21,11h1v1h-1z M22,11h1v1h-1z M23,11h1v1h-1z M27,11h1v1h-1z M28,11h1v1h-1z M29,11h1v1h-1z M32,11h1v1h-1z M3,12h1v1h-1z M4,12h1v1h-1z M5,12h1v1h-1z M6,12h1v1h-1z M7,12h1v1h-1z M9,12h1v1h-1z M11,12h1v1h-1z M12,12h1v1h-1z M14,12h1v1h-1z M16,12h1v1h-1z M18,12h1v1h-1z M20,12h1v1h-1z M21,12h1v1h-1z M22,12h1v1h-1z M24,12h1v1h-1z M25,12h1v1h-1z M26,12h1v1h-1z M27,12h1v1h-1z M30,12h1v1h-1z M31,12h1v1h-1z M0,13h1v1h-1z M1,13h1v1h-1z M2,13h1v1h-1z M4,13h1v1h-1z M5,13h1v1h-1z M7,13h1v1h-1z M8,13h1v1h-1z M10,13h1v1h-1z M12,13h1v1h-1z M14,13h1v1h-1z M15,13h1v1h-1z M17,13h1v1h-1z M18,13h1v1h-1z M20,13h1v1h-1z M21,13h1v1h-1z M24,13h1v1h-1z M27,13h1v1h-1z M28,13h1v1h-1z M0,14h1v1h-1z M3,14h1v1h-1z M6,14h1v1h-1z M13,14h1v1h-1z M14,14h1v1h-1z M15,14h1v1h-1z M16,14h1v1h-1z M17,14h1v1h-1z M19,14h1v1h-1z M23,14h1v1h-1z M25,14h1v1h-1z M27,14h1v1h-1z M28,14h1v1h-1z M30,14h1v1h-1z M31,14h1v1h-1z M0,15h1v1h-1z M3,15h1v1h-1z M9,15h1v1h-1z M12,15h1v1h-1z M13,15h1v1h-1z M14,15h1v1h-1z M16,15h1v1h-1z M17,15h1v1h-1z M18,15h1v1h-1z M20,15h1v1h-1z M21,15h1v1h-1z M22,15h1v1h-1z M23,15h1v1h-1z M26,15h1v1h-1z M32,15h1v1h-1z M0,16h1v1h-1z M1,16h1v1h-1z M2,16h1v1h-1z M5,16h1v1h-1z M6,16h1v1h-1z M7,16h1v1h-1z M9,16h1v1h-1z M10,16h1v1h-1z M11,16h1v1h-1z M13,16h1v1h-1z M14,16h1v1h-1z M15,16h1v1h-1z M16,16h1v1h-1z M17,16h1v1h-1z M20,16h1v1h-1z M21,16h1v1h-1z M22,16h1v1h-1z M26,16h1v1h-1z M27,16h1v1h-1z M28,16h1v1h-1z M32,16h1v1h-1z M0,17h1v1h-1z M3,17h1v1h-1z M4,17h1v1h-1z M5,17h1v1h-1z M10,17h1v1h-1z M12,17h1v1h-1z M13,17h1v1h-1z M16,17h1v1h-1z M17,17h1v1h-1z M18,17h1v1h-1z M24,17h1v1h-1z M26,17h1v1h-1z M27,17h1v1h-1z M29,17h1v1h-1z M31,17h1v1h-1z M2,18h1v1h-1z M4,18h1v1h-1z M6,18h1v1h-1z M7,18h1v1h-1z M11,18h1v1h-1z M13,18h1v1h-1z M14,18h1v1h-1z M16,18h1v1h-1z M17,18h1v1h-1z M20,18h1v1h-1z M21,18h1v1h-1z M22,18h1v1h-1z M28,18h1v1h-1z M31,18h1v1h-1z M32,18h1v1h-1z M2,19h1v1h-1z M3,19h1v1h-1z M7,19h1v1h-1z M8,19h1v1h-1z M12,19h1v1h-1z M16,19h1v1h-1z M19,19h1v1h-1z M21,19h1v1h-1z M28,19h1v1h-1z M31,19h1v1h-1z M32,19h1v1h-1z M2,20h1v1h-1z M6,20h1v1h-1z M7,20h1v1h-1z M9,20h1v1h-1z M13,20h1v1h-1z M15,20h1v1h-1z M17,20h1v1h-1z M20,20h1v1h-1z M21,20h1v1h-1z M22,20h1v1h-1z M24,20h1v1h-1z M29,20h1v1h-1z M30,20h1v1h-1z M31,20h1v1h-1z M32,20h1v1h-1z M3,21h1v1h-1z M7,21h1v1h-1z M9,21h1v1h-1z M10,21h1v1h-1z M11,21h1v1h-1z M12,21h1v1h-1z M13,21h1v1h-1z M15,21h1v1h-1z M17,21h1v1h-1z M19,21h1v1h-1z M22,21h1v1h-1z M24,21h1v1h-1z M26,21h1v1h-1z M29,21h1v1h-1z M30,21h1v1h-1z M0,22h1v1h-1z M1,22h1v1h-1z M2,22h1v1h-1z M3,22h1v1h-1z M6,22h1v1h-1z M9,22h1v1h-1z M10,22h1v1h-1z M12,22h1v1h-1z M16,22h1v1h-1z M17,22h1v1h-1z M18,22h1v1h-1z M19,22h1v1h-1z M21,22h1v1h-1z M22,22h1v1h-1z M24,22h1v1h-1z M25,22h1v1h-1z M26,22h1v1h-1z M27,22h1v1h-1z M30,22h1v1h-1z M32,22h1v1h-1z M1,23h1v1h-1z M2,23h1v1h-1z M4,23h1v1h-1z M5,23h1v1h-1z M11,23h1v1h-1z M12,23h1v1h-1z M13,23h1v1h-1z M14,23h1v1h-1z M15,23h1v1h-1z M18,23h1v1h-1z M19,23h1v1h-1z M20,23h1v1h-1z M21,23h1v1h-1z M23,23h1v1h-1z M24,23h1v1h-1z M25,23h1v1h-1z M26,23h1v1h-1z M28,23h1v1h-1z M29,23h1v1h-1z M31,23h1v1h-1z M32,23h1v1h-1z M0,24h1v1h-1z M4,24h1v1h-1z M6,24h1v1h-1z M8,24h1v1h-1z M10,24h1v1h-1z M13,24h1v1h-1z M17,24h1v1h-1z M18,24h1v1h-1z M24,24h1v1h-1z M25,24h1v1h-1z M26,24h1v1h-1z M27,24h1v1h-1z M28,24h1v1h-1z M32,24h1v1h-1z M8,25h1v1h-1z M9,25h1v1h-1z M10,25h1v1h-1z M11,25h1v1h-1z M12,25h1v1h-1z M16,25h1v1h-1z M17,25h1v1h-1z M18,25h1v1h-1z M20,25h1v1h-1z M22,25h1v1h-1z M24,25h1v1h-1z M28,25h1v1h-1z M29,25h1v1h-1z M30,25h1v1h-1z M32,25h1v1h-1z M0,26h1v1h-1z M1,26h1v1h-1z M2,26h1v1h-1z M3,26h1v1h-1z M4,26h1v1h-1z M5,26h1v1h-1z M6,26h1v1h-1z M9,26h1v1h-1z M11,26h1v1h-1z M13,26h1v1h-1z M16,26h1v1h-1z M17,26h1v1h-1z M18,26h1v1h-1z M21,26h1v1h-1z M22,26h1v1h-1z M24,26h1v1h-1z M26,26h1v1h-1z M28,26h1v1h-1z M30,26h1v1h-1z M31,26h1v1h-1z M0,27h1v1h-1z M6,27h1v1h-1z M8,27h1v1h-1z M10,27h1v1h-1z M11,27h1v1h-1z M13,27h1v1h-1z M15,27h1v1h-1z M17,27h1v1h-1z M18,27h1v1h-1z M20,27h1v1h-1z M21,27h1v1h-1z M22,27h1v1h-1z M23,27h1v1h-1z M24,27h1v1h-1z M28,27h1v1h-1z M29,27h1v1h-1z M32,27h1v1h-1z M0,28h1v1h-1z M2,28h1v1h-1z M3,28h1v1h-1z M4,28h1v1h-1z M6,28h1v1h-1z M12,28h1v1h-1z M13,28h1v1h-1z M18,28h1v1h-1z M20,28h1v1h-1z M24,28h1v1h-1z M25,28h1v1h-1z M26,28h1v1h-1z M27,28h1v1h-1z M28,28h1v1h-1z M29,28h1v1h-1z M31,28h1v1h-1z M32,28h1v1h-1z M0,29h1v1h-1z M2,29h1v1h-1z M3,29h1v1h-1z M4,29h1v1h-1z M6,29h1v1h-1z M8,29h1v1h-1z M10,29h1v1h-1z M11,29h1v1h-1z M13,29h1v1h-1z M15,29h1v1h-1z M16,29h1v1h-1z M17,29h1v1h-1z M18,29h1v1h-1z M19,29h1v1h-1z M23,29h1v1h-1z M26,29h1v1h-1z M29,29h1v1h-1z M30,29h1v1h-1z M0,30h1v1h-1z M2,30h1v1h-1z M3,30h1v1h-1z M4,30h1v1h-1z M6,30h1v1h-1z M10,30h1v1h-1z M11,30h1v1h-1z M12,30h1v1h-1z M15,30h1v1h-1z M16,30h1v1h-1z M17,30h1v1h-1z M18,30h1v1h-1z M19,30h1v1h-1z M20,30h1v1h-1z M22,30h1v1h-1z M24,30h1v1h-1z M26,30h1v1h-1z M27,30h1v1h-1z M28,30h1v1h-1z M29,30h1v1h-1z M32,30h1v1h-1z M0,31h1v1h-1z M6,31h1v1h-1z M9,31h1v1h-1z M12,31h1v1h-1z M14,31h1v1h-1z M17,31h1v1h-1z M18,31h1v1h-1z M19,31h1v1h-1z M20,31h1v1h-1z M21,31h1v1h-1z M23,31h1v1h-1z M24,31h1v1h-1z M26,31h1v1h-1z M27,31h1v1h-1z M0,32h1v1h-1z M1,32h1v1h-1z M2,32h1v1h-1z M3,32h1v1h-1z M4,32h1v1h-1z M5,32h1v1h-1z M6,32h1v1h-1z M8,32h1v1h-1z M9,32h1v1h-1z M11,32h1v1h-1z M12,32h1v1h-1z M15,32h1v1h-1z M17,32h1v1h-1z M19,32h1v1h-1z M21,32h1v1h-1z M24,32h1v1h-1z M26,32h1v1h-1z M29,32h1v1h-1z M31,32h1v1h-1z" fill="#000000"/>
</svg>